<?xml version="1.0" encoding="UTF-8" standalone="no"?>
<svg
   viewBox="0 0 128 102.42912"
   version="1.1"
   id="svg4"
   sodipodi:docname="foobar.svg"
   inkscape:version="1.2.2 (b0a8486541, 2022-12-01)"
   width="128"
   height="102.42912"
   xmlns:inkscape="http://www.inkscape.org/namespaces/inkscape"
   xmlns:sodipodi="http://sodipodi.sourceforge.net/DTD/sodipodi-0.dtd"
   xmlns="http://www.w3.org/2000/svg"
   xmlns:svg="http://www.w3.org/2000/svg">
  <defs
     id="defs8" />
  <sodipodi:namedview
     id="namedview6"
     pagecolor="#000000"
     bordercolor="#000000"
     borderopacity="0.24705882"
     inkscape:showpageshadow="2"
     inkscape:pageopacity="0"
     inkscape:pagecheckerboard="0"
     inkscape:deskcolor="#d1d1d1"
     showgrid="false"
     inkscape:zoom="1"
     inkscape:cx="126"
     inkscape:cy="190.5"
     inkscape:window-width="1878"
     inkscape:window-height="1011"
     inkscape:window-x="1920"
     inkscape:window-y="714"
     inkscape:window-maximized="1"
     inkscape:current-layer="svg4" />
  <!--!Font Awesome Free 7.0.1 by @fontawesome - https://fontawesome.com License - https://fontawesome.com/license/free Copyright 2025 Fonticons, Inc.-->
  <path
     d="M 70.414904,24.902217 60.033988,22.301985 c -1.3001,-0.320028 -2.260186,-1.420126 -2.400196,-2.760245 -0.140015,-1.340119 0.560038,-2.620233 1.740151,-3.220287 L 67.534653,12.24109 58.87391,5.7405111 C 57.773802,4.9204381 57.313763,3.4803099 57.753789,2.1601924 58.19383,0.84007477 59.433938,0 60.814045,0 h 32.002846 c 6.04052,0 11.741039,2.8402529 15.361359,7.6806839 l 11.52104,15.3613681 c 1.24008,1.660148 1.92016,3.680327 1.92016,5.760513 0,5.300472 -4.30038,9.600854 -9.60087,9.600854 h -4.30038 c -3.40029,0 -6.66058,-1.340119 -9.060792,-3.740332 l -2.660229,-2.660238 h -6.400567 v 4.300384 c 0,4.960441 2.560231,9.580853 6.760606,12.221087 L 117.67909,61.845506 C 124.09965,65.865865 128,72.88649 128,80.467165 c 0,12.121081 -9.82087,21.961955 -21.96195,21.961955 l -99.5687878,-0.02 c -0.6600584,0 -1.3201151,-0.08 -1.9201682,-0.28003 C 2.7089302,101.56904 1.2087986,100.20893 0.46873314,98.408764 0.20871034,97.7487 0.0286943,97.028638 0.00869253,96.268569 -0.03131099,95.528508 0.06869784,94.808438 0.26871545,94.128383 0.82876497,92.288221 2.1888839,90.788083 3.9890429,90.048021 4.5890962,89.807995 5.2291534,89.647983 5.889213,89.607976 l 80.787144,-7.200635 c 1.660134,-0.140012 2.940246,-1.540137 2.940246,-3.22029 0,-0.860076 -0.340023,-1.680149 -0.940072,-2.280203 l -8.8808,-8.880791 C 73.79521,62.025523 70.414904,53.884798 70.414904,45.404043 Z M 102.41774,14.461288 c 0,-0.02 0,-0.04001 0,-0.06001 0,-0.02 0,-0.04 0,-0.06001 z m -0.26004,1.480131 -9.280803,-2.320206 c -0.03998,0.260023 -0.06001,0.520046 -0.06001,0.780069 0,2.660237 2.140202,4.800428 4.800415,4.800428 2.120195,0 3.900338,-1.360122 4.540398,-3.260291 z m -75.966694,7.360656 c 3.260299,-2.900259 8.080706,-3.240289 11.70103,-0.820073 l 26.122298,17.40155 v 5.500489 c 0,6.560584 1.680157,12.961154 4.800428,18.601656 H 22.41068 c -1.34013,0 -2.540227,-0.840074 -3.000274,-2.080185 -0.46004,-1.24011 -0.10001,-2.660236 0.92008,-3.540315 L 34.21172,46.464137 3.6890169,51.164556 C 2.2888938,51.384575 0.90877208,50.64451 0.30871907,49.364395 -0.29133388,48.084281 0.0286943,46.564146 1.088788,45.604061 Z"
     id="path2"
     style="fill:#dcddde;fill-opacity:1;stroke-width:0.200024" />
</svg>
