<?xml version="1.0" encoding="UTF-8" standalone="no"?>
<svg
   viewBox="0 0 17.495026 14"
   version="1.1"
   id="svg4"
   sodipodi:docname="foobar_1.svg"
   inkscape:version="1.2.2 (b0a8486541, 2022-12-01)"
   width="17.495026"
   height="14"
   xmlns:inkscape="http://www.inkscape.org/namespaces/inkscape"
   xmlns:sodipodi="http://sodipodi.sourceforge.net/DTD/sodipodi-0.dtd"
   xmlns="http://www.w3.org/2000/svg"
   xmlns:svg="http://www.w3.org/2000/svg">
  <defs
     id="defs8" />
  <sodipodi:namedview
     id="namedview6"
     pagecolor="#000000"
     bordercolor="#000000"
     borderopacity="0.24705882"
     inkscape:showpageshadow="2"
     inkscape:pageopacity="0"
     inkscape:pagecheckerboard="0"
     inkscape:deskcolor="#d1d1d1"
     showgrid="false"
     inkscape:zoom="5.6568542"
     inkscape:cx="15.733126"
     inkscape:cy="41.630912"
     inkscape:window-width="1878"
     inkscape:window-height="1011"
     inkscape:window-x="1920"
     inkscape:window-y="714"
     inkscape:window-maximized="1"
     inkscape:current-layer="svg4" />
  <!--!Font Awesome Free 7.0.1 by @fontawesome - https://fontawesome.com License - https://fontawesome.com/license/free Copyright 2025 Fonticons, Inc.-->
  <path
     d="M 9.6243008,3.4036322 8.2054387,3.0482328 C 8.0277411,3.0044913 7.8965166,2.8541301 7.8773801,2.6709628 7.8582429,2.4877955 7.953926,2.3128297 8.1152238,2.2308144 L 9.2306286,1.6731108 8.0468793,0.78461241 C 7.8965166,0.67252492 7.8336386,0.47568836 7.8937813,0.29525485 7.953926,0.11482133 8.1234239,0 8.3120567,0 h 4.3741453 c 0.825618,0 1.604764,0.38820544 2.099589,1.049795 l 1.574694,2.09959 c 0.169495,0.2269089 0.262447,0.5030267 0.262447,0.7873463 0,0.724468 -0.587775,1.3122436 -1.312245,1.3122436 h -0.587776 c -0.464751,0 -0.910367,-0.1831673 -1.238428,-0.5112281 l -0.3636,-0.363601 h -0.874828 v 0.5877759 c 0,0.6779926 0.349931,1.3095099 0.924039,1.6703768 l 2.914271,1.8207382 c 0.877561,0.5495022 1.41066,1.5090801 1.41066,2.5452063 C 17.495025,12.654951 16.15271,14 14.493269,14 L 0.88421802,13.9972 c -0.0902167,0 -0.18043318,-0.01093 -0.26244837,-0.03828 C 0.37025627,13.882415 0.16521845,13.696513 0.06406639,13.450467 0.0285265,13.360247 0.00392193,13.261831 0.0011881,13.157945 c -0.00546769,-0.101152 0.00820151,-0.19957 0.0355399,-0.29252 0.0765475,-0.251514 0.2624484,-0.456552 0.50849392,-0.557704 0.0820152,-0.03281 0.16949817,-0.05468 0.25971504,-0.06015 L 11.846915,11.263426 c 0.226907,-0.01913 0.401873,-0.210505 0.401873,-0.440149 0,-0.117555 -0.04647,-0.229642 -0.128489,-0.311658 L 10.906472,9.2977939 C 10.08632,8.4776414 9.6243008,7.3649681 9.6243008,6.2058194 Z m 4.3741442,-1.427065 c 0,-0.00273 0,-0.00547 0,-0.0082 0,-0.00273 0,-0.00547 0,-0.0082 z m -0.03554,0.2023041 -1.2685,-0.3171255 c -0.0054,0.03554 -0.0082,0.07108 -0.0082,0.1066198 0,0.3636009 0.292523,0.6561219 0.65612,0.6561219 0.289789,0 0.533098,-0.1859013 0.620582,-0.4456162 z M 3.5797838,3.184925 C 4.025401,2.7885179 4.6842536,2.7420427 5.1790792,3.0728375 l 3.5703927,2.3784418 v 0.7518063 c 0,0.8966999 0.2296436,1.771529 0.6561217,2.5424722 H 3.0630892 C 2.8799204,8.7455578 2.7158913,8.6307365 2.653012,8.4612383 2.5901339,8.2917402 2.6393427,8.0976376 2.7787685,7.9773485 L 4.676054,6.3507129 0.5042144,6.9931657 C 0.31284574,7.0232379 0.12421086,6.9220859 0.04219568,6.7471199 -0.03981949,6.5721541 0.00392193,6.3643822 0.14881542,6.2331579 Z"
     id="path2"
     style="fill:#dcddde;fill-opacity:1;stroke-width:0.0273393" />
</svg>
